<?xml-stylesheet type="text/css" href="../style.css"?>
<svg xmlns="http://www.w3.org/2000/svg" viewBox="0 0 15 15.03"><title>tel</title><g id="Layer_2" data-name="Layer 2"><g id="Layer_1-2" data-name="Layer 1"><path class="link-svg" d="M11.33,15a6.93,6.93,0,0,1-2.85-.72c-3.7-1.86-6.59-4.49-8-8.49A5.08,5.08,0,0,1,.09,2.89,4.08,4.08,0,0,1,2.59.12c.52-.24.72-.13,1,.36.55.9,1.1,1.8,1.64,2.7.28.45.27.66-.12,1s-.81.72-1.22,1.06a.78.78,0,0,0-.25,1.1A10.83,10.83,0,0,0,4.72,8a18.62,18.62,0,0,0,4,3.33c.56.36.74.33,1.17-.18s.58-.74.89-1.1.63-.49,1.16-.18c.91.53,1.8,1.08,2.72,1.59a.61.61,0,0,1,.33.82A3.73,3.73,0,0,1,12,14.93,6,6,0,0,1,11.33,15Z"/></g></g></svg>
